<?xml version="1.0" encoding="UTF-8"?>
<svg id="Layer_1" data-name="Layer 1" xmlns="http://www.w3.org/2000/svg" viewBox="0 0 512 512">
  <defs>
    <style>
      .cls-1 {
        fill: #fff;
      }

      .cls-1, .cls-2 {
        stroke-width: 0px;
      }

      .cls-2 {
        fill: #004870;
      }
    </style>
  </defs>
  <circle class="cls-2" cx="256" cy="256" r="256"/>
  <path class="cls-1" d="M427.07,240.53c-2.28,13.02-11.27,19.53-26.98,19.53h-72.27l-22.46,63.48h-43.95l22.71-63.48h-41.26c-23.11,56.72-59.53,85.12-109.25,85.21-13.43,0-24.46-2.65-33.08-7.93-10.42-6.35-15.62-15.87-15.62-28.56,0-9.93,3.34-19.94,10.01-30.03,16.85-25.47,47.81-38.21,92.9-38.21h17.82l37.72-107.3h43.82l-38.33,107.3h41.99l31.25-88.75h44.07l-31.49,88.75h92.41ZM198.68,260.06h-3.54c-16.03,0-30.44,4.11-43.21,12.33-14.73,9.44-22.09,21.73-22.09,36.87,0,10.5,4.68,15.75,14.04,15.75,11.72,0,23.32-8.22,34.79-24.66,8.54-12.29,15.22-25.71,20.02-40.28Z"/>
</svg>